#!OML:ASF E:\Style4\Style4.ASF
:FULLY-SPECIFIED
:DEGREES
3325
root 0.133669 17.1184 -1.07717 0.404713 1.61277 4.12453
lowerback 13.4314 3.0576 -0.100375
upperback 6.32931 4.00619 -0.782992
thorax -0.814613 2.01319 -1.30861
lowerneck 2.55941 -3.67292 -4.13943
upperneck 5.04556 -5.07513 3.7071
head 1.35932 -2.5575 1.84152
rclavicle -9.93923e-015 -4.37326e-015
rhumerus 21.5007 -22.3372 -48.5683
rradius 107.61
rwrist -0.50191
rhand 3.65952 8.36568
rfingers 7.12502
rthumb 29.0906 -19.3825
lclavicle -9.93923e-015 -4.37326e-015
lhumerus 19.721 15.1888 41.8515
lradius 113.399
lwrist 9.98442
lhand -1.26263 28.1212
lfingers 7.12502
lthumb 24.3805 56.5902
rfemur -23.7962 -3.86755 13.8678
rtibia 49.5981
rfoot -23.5521 -16.7907
rtoes -14.9112
lfemur -22.6762 1.66844 -23.1414
ltibia 45.6214
lfoot -22.2237 8.2065
ltoes -16.0801
3326
root 0.130322 17.129 -1.08174 0.515545 1.61066 4.18481
lowerback 13.3884 3.02604 -0.164496
upperback 6.27967 3.95651 -0.806673
thorax -0.847423 1.98709 -1.28994
lowerneck 2.62529 -3.6392 -4.09824
upperneck 4.88901 -5.02792 3.67906
head 1.29383 -2.53431 1.82774
rclavicle 9.62118e-014 -7.55382e-015
rhumerus 21.6931 -22.3179 -48.5504
rradius 107.638
rwrist -0.472979
rhand 3.66887 8.35434
rfingers 7.12502
rthumb 29.0995 -19.3923
lclavicle 9.62118e-014 -7.55382e-015
lhumerus 19.896 15.354 41.7744
lradius 113.412
lwrist 9.92798
lhand -1.2662 28.2839
lfingers 7.12502
lthumb 24.377 56.7534
rfemur -23.849 -3.9924 13.8104
rtibia 49.434
rfoot -23.4421 -16.7116
rtoes -15.0289
lfemur -22.7458 1.64526 -23.2036
ltibia 45.5154
lfoot -22.2001 8.24019
ltoes -16.2253
3327
root 0.125707 17.1351 -1.08735 0.612596 1.60687 4.24308
lowerback 13.3796 3.01527 -0.221634
upperback 6.23585 3.93493 -0.817723
thorax -0.892152 1.97494 -1.26768
lowerneck 2.60769 -3.63712 -4.14004
upperneck 4.80808 -5.02435 3.69265
head 1.27268 -2.53308 1.83974
rclavicle -3.71727e-014 -7.55382e-015
rhumerus 21.9344 -22.324 -48.4557
rradius 107.55
rwrist -0.510394
rhand 3.61651 8.32853
rfingers 7.12502
rthumb 29.0495 -19.4267
lclavicle -3.71727e-014 -7.55382e-015
lhumerus 20.096 15.5219 41.7686
lradius 113.432
lwrist 9.84534
lhand -1.23982 28.5284
lfingers 7.12502
lthumb 24.4023 56.9945
rfemur -23.9385 -4.03558 13.7614
rtibia 49.3417
rfoot -23.3798 -16.6701
rtoes -15.2583
lfemur -22.8192 1.6623 -23.2548
ltibia 45.411
lfoot -22.1525 8.14222
ltoes -15.6464
3328
root 0.1212 17.1358 -1.09342 0.69075 1.61725 4.34138
lowerback 13.3674 3.0209 -0.325963
upperback 6.19598 3.92939 -0.832679
thorax -0.933437 1.97009 -1.225
lowerneck 2.68643 -3.64097 -4.20868
upperneck 4.65368 -5.03293 3.76518
head 1.21495 -2.53863 1.87785
rclavicle -1.13108e-013 1.55052e-014
rhumerus 22.1562 -22.3748 -48.3586
rradius 107.455
rwrist -0.545696
rhand 3.4225 8.45841
rfingers 7.12502
rthumb 28.8642 -19.3286
lclavicle -1.13108e-013 1.55052e-014
lhumerus 20.2973 15.6268 41.7825
lradius 113.422
lwrist 9.87288
lhand -1.27943 28.5628
lfingers 7.12502
lthumb 24.3644 57.034
rfemur -24.0493 -4.09975 13.6628
rtibia 49.3335
rfoot -23.419 -16.5942
rtoes -15.2046
lfemur -22.8862 1.66088 -23.3503
ltibia 45.341
lfoot -22.0908 8.12868
ltoes -15.4497
3329
root 0.118615 17.135 -1.09681 0.741952 1.62046 4.37687
lowerback 13.3338 3.02627 -0.324216
upperback 6.18063 3.93646 -0.858854
thorax -0.929385 1.97404 -1.25266
lowerneck 2.74073 -3.66817 -4.21141
upperneck 4.51605 -5.07024 3.81831
head 1.1654 -2.55739 1.89726
rclavicle 3.97569e-015 -7.95139e-016
rhumerus 22.3494 -22.4816 -48.3328
rradius 107.37
rwrist -0.532044
rhand 3.12177 8.58534
rfingers 7.12502
rthumb 28.5769 -19.2504
lclavicle 3.97569e-015 -7.95139e-016
lhumerus 20.6232 15.7373 41.8444
lradius 113.322
lwrist 9.89563
lhand -1.16016 28.3603
lfingers 7.12502
lthumb 24.4787 56.8161
rfemur -24.1461 -4.2205 13.6307
rtibia 49.3824
rfoot -23.318 -16.5622
rtoes -15.4729
lfemur -22.9501 1.62443 -23.385
ltibia 45.3346
lfoot -22.0919 8.23351
ltoes -15.6122
3330
root 0.115262 17.1329 -1.10124 0.737939 1.58591 4.28238
lowerback 13.3753 3.02065 -0.218414
upperback 6.1626 3.94109 -0.844201
thorax -0.964388 1.97778 -1.30018
lowerneck 2.75635 -3.68381 -4.23164
upperneck 4.4419 -5.09214 3.86462
head 1.14231 -2.56847 1.91656
rclavicle 1.45113e-014 -1.47101e-014
rhumerus 22.5786 -22.5409 -48.3462
rradius 107.295
rwrist -0.549391
rhand 3.03512 8.55102
rfingers 7.12502
rthumb 28.4941 -19.2986
lclavicle 1.45113e-014 -1.47101e-014
lhumerus 20.88 15.8897 41.8398
lradius 113.222
lwrist 9.8172
lhand -1.06955 28.2207
lfingers 7.12502
lthumb 24.5655 56.6647
rfemur -24.2029 -4.26129 13.7539
rtibia 49.481
rfoot -23.3164 -16.4204
rtoes -15.1472
lfemur -22.9842 1.6125 -23.2576
ltibia 45.384
lfoot -22.1318 8.10376
ltoes -14.8941
3331
root 0.108409 17.1271 -1.10934 0.717536 1.52671 4.18834
lowerback 13.4697 3.02763 -0.174135
upperback 6.14541 3.95484 -0.806546
thorax -1.03236 1.98431 -1.29392
lowerneck 2.76707 -3.66877 -4.28887
upperneck 4.39645 -5.07463 3.92408
head 1.12896 -2.56032 1.94676
rclavicle -6.26172e-014 5.1684e-015
rhumerus 22.8117 -22.5594 -48.307
rradius 107.276
rwrist -0.667139
rhand 3.03892 8.36694
rfingers 7.12502
rthumb 28.4977 -19.4821
lclavicle -6.26172e-014 5.1684e-015
lhumerus 21.0658 16.0498 41.8525
lradius 113.198
lwrist 9.72873
lhand -1.1861 28.0922
lfingers 7.12502
lthumb 24.4538 56.5514
rfemur -24.2698 -4.26587 13.9063
rtibia 49.6082
rfoot -23.2681 -16.2322
rtoes -14.8647
lfemur -23.0409 1.604 -23.114
ltibia 45.4729
lfoot -22.2199 7.9761
ltoes -14.1885
3332
root 0.100912 17.1212 -1.11737 0.679159 1.51288 4.21851
lowerback 13.5727 3.02997 -0.265629
upperback 6.1537 3.94588 -0.791093
thorax -1.08609 1.97764 -1.23139
lowerneck 2.80764 -3.66645 -4.29933
upperneck 4.32789 -5.07082 3.89476
head 1.09949 -2.55924 1.94036
rclavicle -4.96962e-015 -7.95139e-016
rhumerus 23.0549 -22.5881 -48.2813
rradius 107.222
rwrist -0.761818
rhand 3.01135 8.28166
rfingers 7.12502
rthumb 28.4714 -19.5718
lclavicle -4.96962e-015 -7.95139e-016
lhumerus 21.281 16.22 41.9563
lradius 113.186
lwrist 9.62028
lhand -1.31466 27.9783
lfingers 7.12502
lthumb 24.3306 56.454
rfemur -24.3224 -4.28341 13.8994
rtibia 49.7177
rfoot -23.3377 -16.1812
rtoes -14.6704
lfemur -23.1028 1.5984 -23.1273
ltibia 45.5927
lfoot -22.2129 8.08758
ltoes -14.8265
3333
root 0.0949125 17.113 -1.12273 0.628108 1.52657 4.28037
lowerback 13.6326 3.05062 -0.348642
upperback 6.18893 3.9625 -0.792955
thorax -1.08625 1.98459 -1.1916
lowerneck 2.86587 -3.70206 -4.22946
upperneck 4.22897 -5.11468 3.82446
head 1.05577 -2.58112 1.90665
rclavicle -3.73715e-014 1.27222e-014
rhumerus 23.2841 -22.6974 -48.3131
rradius 107.144
rwrist -0.721887
rhand 2.98549 8.25426
rfingers 7.12502
rthumb 28.4467 -19.6033
lclavicle -3.73715e-014 1.27222e-014
lhumerus 21.5728 16.2974 42.0858
lradius 113.144
lwrist 9.57745
lhand -1.46428 28.056
lfingers 7.12502
lthumb 24.1871 56.5508
rfemur -24.3834 -4.27848 13.8326
rtibia 49.817
rfoot -23.3698 -16.4143
rtoes -15.0289
lfemur -23.1434 1.57806 -23.1829
ltibia 45.7344
lfoot -22.1666 8.18759
ltoes -15.4751
3334
root 0.0907167 17.1037 -1.12711 0.554777 1.53998 4.24716
lowerback 13.6796 3.03896 -0.327752
upperback 6.24112 3.95019 -0.765122
thorax -1.0574 1.97872 -1.17349
lowerneck 2.9597 -3.70879 -4.15856
upperneck 4.08616 -5.11996 3.73699
head 0.989907 -2.5842 1.86864
rclavicle -4.75095e-014 3.18055e-014
rhumerus 23.5949 -22.7784 -48.4252
rradius 107.164
rwrist -0.697147
rhand 3.06203 8.09042
rfingers 7.12502
rthumb 28.5198 -19.7549
lclavicle -4.75095e-014 3.18055e-014
lhumerus 21.7965 16.3997 42.1973
lradius 113.086
lwrist 9.37739
lhand -1.51627 28.2934
lfingers 7.12502
lthumb 24.1373 56.7949
rfemur -24.3789 -4.28408 13.8725
rtibia 49.9066
rfoot -23.4523 -16.5302
rtoes -15.4949
lfemur -23.159 1.57629 -23.1317
ltibia 45.8925
lfoot -22.2211 8.1977
ltoes -15.5391
3335
root 0.0854288 17.0922 -1.1347 0.422804 1.5667 4.24694
lowerback 13.8415 3.03863 -0.330927
upperback 6.27075 3.9478 -0.754525
thorax -1.11359 1.97713 -1.16877
lowerneck 3.1637 -3.71028 -4.1031
upperneck 3.91214 -5.12325 3.71017
head 0.897992 -2.58702 1.85572
rclavicle 3.71727e-014 -5.96354e-015
rhumerus 23.7937 -22.8476 -48.5489
rradius 107.166
rwrist -0.630181
rhand 3.07222 7.99767
rfingers 7.12502
rthumb 28.5296 -19.846
lclavicle 3.71727e-014 -5.96354e-015
lhumerus 21.9987 16.3624 42.3129
lradius 112.948
lwrist 9.02917
lhand -1.68611 28.167
lfingers 7.12502
lthumb 23.9744 56.69
rfemur -24.3132 -4.30273 13.8842
rtibia 50.0194
rfoot -23.5468 -16.48
rtoes -15.389
lfemur -23.1298 1.55978 -23.105
ltibia 46.0558
lfoot -22.3598 8.08069
ltoes -15.0148
3336
root 0.0798756 17.0803 -1.14263 0.252819 1.59224 4.24822
lowerback 14.0423 3.07815 -0.2786
upperback 6.28864 4.00361 -0.773774
thorax -1.19577 2.00586 -1.23717
lowerneck 3.49364 -3.75363 -4.04579
upperneck 3.70073 -5.18748 3.77883
head 0.778767 -2.62086 1.87649
rclavicle -1.5704e-014 3.97569e-016
rhumerus 23.7743 -22.9961 -48.5628
rradius 107.138
rwrist -0.577335
rhand 3.11402 8.10497
rfingers 7.12502
rthumb 28.5695 -19.732
lclavicle -1.5704e-014 3.97569e-016
lhumerus 22.2532 16.2211 42.4615
lradius 112.875
lwrist 8.92577
lhand -1.749 27.8018
lfingers 7.12502
lthumb 23.9141 56.3327
rfemur -24.2245 -4.32194 13.8929
rtibia 50.1437
rfoot -23.6106 -16.4734
rtoes -15.192
lfemur -23.0675 1.55479 -23.0778
ltibia 46.219
lfoot -22.4902 7.98876
ltoes -14.4732
3337
root 0.0753895 17.0707 -1.14881 0.151474 1.62751 4.24932
lowerback 14.1062 3.07942 -0.277688
upperback 6.34395 4.00558 -0.757875
thorax -1.1727 2.00698 -1.22319
lowerneck 3.56265 -3.75057 -4.07952
upperneck 3.65843 -5.18719 3.84282
head 0.756762 -2.62153 1.90511
rclavicle 5.78463e-014 -2.26615e-014
rhumerus 23.8866 -23.0379 -48.5904
rradius 107.115
rwrist -0.594623
rhand 3.17103 8.11512
rfingers 7.12502
rthumb 28.624 -19.7127
lclavicle 5.78463e-014 -2.26615e-014
lhumerus 22.4362 16.2759 42.6278
lradius 112.897
lwrist 8.96597
lhand -1.70526 27.7399
lfingers 7.12502
lthumb 23.9561 56.2653
rfemur -24.2014 -4.33931 13.8975
rtibia 50.2767
rfoot -23.7226 -16.4282
rtoes -15.0238
lfemur -23.0517 1.52033 -23.0632
ltibia 46.3486
lfoot -22.6075 7.96819
ltoes -14.229
